# xmcd
#
# Track frame offsets:
#	150
#	17042
#	34057
#	52132
#	74262
#	91807
#	108617
#	130107
#	146237
#	166652
#	186810
#
# Disc length: 2826 seconds
#
# Revision: 0
# Processed by: cddbd v1.5.2PL0 Copyright (c) Steve Scherf et al.
# Submitted via: EasyCDDAExtractor 11.6.0.1
#
DISCID=970b080b
DTITLE=陈倩倩 - 异想天开
DYEAR=1900
DGENRE=
TTITLE0=异想天开
TTITLE1=说爱 (say love)
TTITLE2=深海的心
TTITLE3=秋千
TTITLE4=热气球
TTITLE5=无拘无束
TTITLE6=见爱就躲
TTITLE7=秒针
TTITLE8=透明岁月
TTITLE9=每天每夜
TTITLE10=婴儿
EXTD=
EXTT0=
EXTT1=
EXTT2=
EXTT3=
EXTT4=
EXTT5=
EXTT6=
EXTT7=
EXTT8=
EXTT9=
EXTT10=
PLAYORDER=
